<?xml version="1.0" encoding="UTF-8"?>
<!-- Created with Inkscape (http://www.inkscape.org/) -->
<svg width="544mm" height="104mm" version="1.1" viewBox="0 0 544 104" xmlns="http://www.w3.org/2000/svg">
 <g fill="#813d9c">
  <path d="m33.177 32.783c-1.4966 4.6429-2.7617 9.3767-3.6761 14.189-0.29934 1.5755-0.52948 3.1648-0.79422 4.7472-0.17633 2.3939-0.73817 5.0232 0.33279 7.3473 0.414 0.89845 1.0133 1.8428 1.8776 2.246 0.86884 0.4053 1.8988-0.02765 2.8483-0.04147 0.01832-1.07e-4 0.01649-0.34285-0.0017-0.34274-0.73248-0.20688-1.5294-0.24136-2.1974-0.62065-2.2618-1.2842-1.3121-6.1316-1.1466-7.9668 0.25505-1.564 0.48577-3.1328 0.76515-4.6921 0.86982-4.8549 2.0601-9.6609 2.5325-14.588 0.01485-0.03234-0.52533-0.31011-0.54017-0.27777z"/>
  <path d="m33.099 34.156c0.75684 0.04298 1.4579 0.11979 2.2223-0.04857 0.41105-0.09053 2.9629-1.0399 3.3602-1.1854 0.01169-0.0032-0.04136-0.22202-0.05305-0.21884-0.58761 0.03072-1.1745 0.08998-1.7628 0.09214-1.2939 0.0047-2.5949-0.18155-3.8893-0.01315-0.07344 0.0073 0.04927 1.3811 0.12271 1.3738z"/>
  <path d="m55.138 39.242c-1.8111-0.95134-3.9511-1.3772-5.517 0.40788-0.45756 0.52162-0.73365 1.1931-1.1005 1.7896-0.19212 0.73931-0.5062 1.4548-0.57636 2.2179-0.24589 2.6747 0.81303 5.0451 3.7125 4.8384 2.086-0.14875 2.6906-1.1979 4.1539-2.5651 1.0595-1.8756 1.4809-2.0753 1.6156-4.2079 0.02823-0.44651-0.11808-0.88626-0.17712-1.3294 2e-3 -0.0099-0.16437-0.04432-0.1662-0.03437-0.0632 0.36486-0.07126 0.74542-0.18961 1.0946-0.51173 1.5096-1.0294 2.0427-1.9407 3.3745-1.1901 1.1212-1.6153 1.8856-3.2375 2.1447-0.44613 0.07125-0.92492 0.0055-1.3438-0.17196-1.591-0.67427-0.88331-3.2299-0.61339-4.4237 0.23326-0.49254 0.38917-1.0355 0.69977-1.4776 1.0907-1.5526 3.0597-1.0203 4.5894-0.94336 0.03817 0.0054 0.12911-0.70862 0.09094-0.71406z"/>
  <path d="m58.675 30.259c-0.22073 0.25408-0.45329 0.49718-0.66218 0.76223-1.8219 2.3118-3.4332 4.8366-5.0254 7.3241-2.8206 4.4066-2.5104 3.9777-5.189 8.53-2.7262 5.2413-1.432 2.764-3.88 7.4335-0.01341 0.01899 0.30413 0.27004 0.31755 0.25103 2.8091-4.3531 1.2771-2.0815 4.6296-6.7895 3.6921-5.4944 7.3897-11.031 10.276-17.059 0.02415-0.02791-0.44195-0.47991-0.46612-0.45201z"/>
  <path d="m59.024 52.608c-0.34109 0.89727-0.75042 2.0186-1.1588 2.8499-0.27552 0.56085-0.60929 1.0874-0.91393 1.6312-0.0081 0.01133 0.18097 0.16305 0.18908 0.15173 0.88926-1.4137 1.8905-2.7923 2.4302-4.4099 0.01192-0.03272-0.53465-0.2556-0.54657-0.22288z"/>
  <path d="m71.777 35.793c-0.85635 1.768-1.2925 3.7769-1.2978 5.7685-0.0049 1.861 0.2085 3.7886 1.715 5.0991 0.63776 0.55482 1.5682 0.54705 2.3523 0.82058 0.93985-0.31321 1.9394-0.47085 2.8196-0.93963 1.9747-1.0517 3.0234-2.4224 4.5229-4.0328 0.015-0.01351-0.21081-0.29373-0.22579-0.28022-0.68704 0.60947-1.3177 1.2983-2.0611 1.8284-2.3077 1.6455-2.3309 1.4094-4.8093 1.9457-0.53126-0.19966-1.1213-0.27353-1.5938-0.59899-1.1373-0.78338-1.099-2.1233-1.148-3.4103-0.07472-1.9635 0.42027-3.8224 0.50955-5.7659 0.02322-0.0469-0.76032-0.48142-0.78354-0.43451z"/>
  <path d="m80.314 33.883c-0.36739 0.35241-0.75969 0.67777-1.1022 1.0572-1.6447 1.8223-2.8639 3.53-4.3149 5.5816-1.7749 2.5097-4.3874 6.3376-5.963 8.9673-0.86699 1.4469-1.6374 2.9562-2.4562 4.4343-0.64256 1.1321-1.2851 2.2642-1.9277 3.3964-0.01764 0.02317 0.36939 0.35309 0.38702 0.32992 0.75139-1.0375 1.5028-2.0751 2.2542-3.1126 0.99739-1.3167 2.0227-2.6103 2.9922-3.9501 2.0757-2.8688 4.0575-5.9119 6.034-8.8578 1.9167-2.8567 2.2194-3.2367 3.894-5.8698 0.2707-0.42563 0.52772-0.86081 0.79158-1.2912 0.03662-0.03527-0.55247-0.72037-0.5891-0.68511z"/>
  <path d="m86.814 30.998c2.4449 0.0297 4.838-0.62286 7.273-0.73763 0.38739-0.01825 0.77536 0.0178 1.163 0.02669 0.15739 0.14376 0.42993 0.21586 0.47218 0.43129 0.04554 0.23227-0.16717 0.44035-0.2588 0.65685-1.8157 4.2898 0.23987-0.65182-2.2452 4.9636-1.716 3.8775-1.6937 4.0228-3.2489 8.2028-1.4499 3.8672-2.3345 7.9159-3.2948 11.936-0.14926 0.6248-0.17419 2.2331-1.1124 2.5509-0.1607 0.05444-0.3197-0.11436-0.47954-0.17154-0.82383 0.31621-0.44032 0.35811-1.1561-0.03814-4e-3 -0.0024-0.04166 0.07235-0.03767 0.0746 0.72427 0.95379 0.28686 0.4295 1.3585 1.5283 0.4541-0.07041 0.96148 0.02531 1.3623-0.21124 1.1259-0.66449 1.1287-2.0681 1.3659-3.1903 0.22331-1.0564 0.4062-2.1227 0.65703-3.1721 0.90248-3.7758 1.3171-4.8538 2.5073-8.65 1.6195-4.6448 1.3281-3.9412 3.0046-8.2738 0.40318-1.042 0.84233-2.0684 1.232-3.1161 0.38022-1.0223 1.1892-2.5098 0.61093-3.7268-0.13847-0.29141-0.52243-0.3463-0.78364-0.51944-0.41198-0.01879-0.82375-0.06927-1.2359-0.0564-1.0837 0.03385-2.4537 0.25243-3.5144 0.41107-0.56079 0.08387-1.1206 0.17501-1.6809 0.26252-0.43174 0.05523-0.86419 0.1045-1.2952 0.16569-0.25732 0.03653-0.51301 0.08496-0.76952 0.12745-0.0281 0.0063 0.0781 0.53213 0.10621 0.52577z"/>
  <path d="m101.04 58.652c-0.23455-0.12966-0.4395-0.3722-0.70364-0.38899-0.46144-0.02932-0.94955 0.0436-1.3653 0.25752-1.1452 0.58929-2.5134 2.4651-1.9798 3.9247 0.21183 0.57943 0.73242 0.97118 1.0986 1.4568 0.52278 0.0405 1.0489 0.19591 1.5683 0.12149 1.3782-0.19747 2.5674-1.3168 2.6701-2.8221 0.0228-0.33458-0.11799-0.65918-0.17699-0.98876 8.4e-4 -5e-3 -0.0823-0.02118-0.0832-0.0162-0.0546 0.24258-0.0564 0.50581-0.16391 0.72773-0.42894 0.88563-1.4486 1.4534-2.3294 1.6411-0.25737 0.05484-0.52494 0.01241-0.7874 0.01861-0.43305 0.09266-0.66785 0.26799-0.50576-0.72231 0.12632-0.77178 0.70472-1.4116 1.2183-1.9065 0.19181-0.18486 0.37975-0.40786 0.62851-0.4858 0.19851-0.0622 0.40958 0.06426 0.61436 0.09639 0.0489 0.01778 0.34598-0.89588 0.29714-0.91367z"/>
  <path d="m108.42 18.203c-1.119 0.7656-2.1264 1.6972-3.1389 2.6085-0.95775 0.86205-1.8693 1.6538-2.7262 2.6328-0.35435 0.40485-0.65903 0.85539-0.98854 1.2831-0.17648 0.42302-0.45389 0.8136-0.52943 1.269-0.20681 1.2468 0.32276 2.0305 1.312 2.7481 0.79973 0.58008 1.8481 0.40009 2.724 0.58592 0.37896 0.08041 0.73466 0.2544 1.102 0.3816 0.0116 0.0027 0.0574-0.21365 0.0459-0.2164-1.6918-0.86553-0.52315-0.18525-2.2405-1.4464-0.30708-0.22551-0.60518-0.4704-0.93846-0.64948-0.31954-0.1717-0.65352 0.2402-0.61972-0.57874 0.0134-0.32551 0.22011-0.60858 0.33017-0.91288 0.30374-0.38302 0.58864-0.78368 0.9112-1.149 1.7352-1.9654 3.8133-3.5807 5.4308-5.6651 0.0476-0.04037-0.62676-0.9314-0.6744-0.89102z"/>
  <path d="m111.31 23.471c0.83149-0.24756 1.5832-0.69528 2.4223-0.92902 0.33152-0.09235 0.6744-0.13072 1.0116-0.19608 7e-3 -0.0015-0.018-0.13272-0.0249-0.13122-0.34625 0.02723-0.69169 0.07116-1.0387 0.08165-0.93055 0.02816-1.8853-0.14649-2.7966 0.12584-0.056 0.02553 0.37031 1.0744 0.42638 1.0488z"/>
  <path d="m118.7 26.498c-0.40398 1.2575-0.93405 2.4514-1.5587 3.6003-5e-3 0.0056 0.0888 0.10012 0.0938 0.09451 1.0925-0.97126 2.1726-1.7601 2.4707-3.3375 0.0191-0.06021-0.98675-0.41759-1.0059-0.35738z"/>
  <path d="m123.4 23.245c1.1891 0.27076 2.3094-0.23857 3.4552-0.46494 0.33085-0.06536 0.66871-0.08148 1.0031-0.12222 0.011-0.0015-0.0126-0.20725-0.0237-0.20583-0.33946-0.01769-0.6816-0.0047-1.0184-0.05303-1.143-0.16403-2.2537-0.60754-3.4211-0.59508-0.077 2.86e-4 -0.0722 1.4414 4e-3 1.4411z"/>
  <path d="m133.31 18.014c0.82219 0.97272 1.946 1.5604 2.8854 2.3897 0.39924 0.35243 0.83089 0.68577 1.1353 1.1318 0.32145 0.47093 0.14836 1.3982 0.11422 1.8671-0.20441 0.39599-0.37558 0.81332-0.61323 1.188-0.28649 0.45163-0.64059 0.85095-0.95377 1.2823-0.78354 1.0792-1.5176 2.1923-2.3288 3.2482-9e-3 0.0073 0.11274 0.17114 0.12151 0.16387 0.43318-0.25376 1.7196-0.99809 2.0069-1.2176 1.4594-1.1152 2.5398-2.5334 3.1729-4.3239 0.0129-0.55679 0.18735-1.1361 0.0388-1.6704-0.62423-2.2442-3.4673-3.5196-5.1483-4.803-0.0397-0.02579-0.47063 0.71823-0.43085 0.74402z"/>
  <path d="m140.56 33.031c-0.56291 0.96007-0.94431 2.0335-1.2599 3.1096-0.0392 0.13355-0.19211 0.30592-0.0998 0.40598 0.18829 0.20411 0.5037 0.20325 0.75556 0.30488 1.1649-2.5313 2.395-5.0305 3.7938-7.4265 1.0239-0.80799 2.2197-1.3109 3.382-1.8468 0.38874-0.17926 0.76759-0.38768 1.171-0.52605 0.29888-0.10254 0.61653-0.1286 0.9248-0.19289 0.01-0.0021-0.0235-0.18313-0.0332-0.18114-0.32329 0.01569-0.64625 0.04279-0.96985 0.04709-0.45521 0.0061-0.91168-0.05186-1.3657-0.01607-1.7146 0.13517-2.9193 0.60596-4.1507 1.9022-1.3897 2.4644-2.4484 5.1145-3.4243 7.7884 0.22326 0.16268 0.40213 0.44253 0.66976 0.48802 0.11565 0.01966 0.0591-0.24002 0.0948-0.35807 0.32595-1.077 0.74075-2.1283 0.9629-3.2375 0.014-0.02698-0.43711-0.28809-0.45106-0.26109z"/>
  <path d="m143.44 32.205c1.0355-0.072 1.988-0.55943 2.959-0.89857 0.3725-0.1301 0.75077-0.24084 1.1262-0.36126 0.0106-0.0027-0.0319-0.19934-0.0425-0.1968-0.39554 0.01048-0.79106 0.04061-1.1866 0.03128-1.0895-0.02571-2.2005-0.26863-3.2567 0.15629-0.0678 0.02398 0.33284 1.2931 0.40068 1.2691z"/>
  <path d="m150.26 44.312c2.1446 0.50905 4.2398-0.14312 6.3241-0.60422 0.0124-0.0021-0.0248-0.22152-0.0373-0.21942-2.0388-0.07358-4.0721-0.24851-6.1031-0.43723-0.0713-0.0104-0.25512 1.2505-0.1838 1.2609z"/>
  <path d="m152.32 48.401c1.9908 0.28034 3.887-0.46093 5.82-0.77927 0.54452-0.08967 1.0969-0.1222 1.6454-0.1833 0.0107-0.0016-0.0174-0.19019-0.0281-0.1886-0.55596 0.01135-1.112 0.05051-1.6679 0.03403-1.9647-0.05827-3.9241-0.44645-5.8926-0.18625-0.0737 7e-3 0.0495 1.3104 0.1232 1.3034z"/>
  <path d="m178.92 32.903c-0.11989 0.23592-0.25198 0.46603-0.3597 0.70776-0.67754 1.5205-0.89956 2.2544-1.5104 3.9518-0.82509 2.2928-1.8502 5.0501-2.5217 7.3692-0.41402 1.4297-0.73507 2.8847-1.1026 4.3271-0.41594 3.2895-1.5638 7.8988 1.7319 10.324 1.9065 1.4029 4.1139 0.50315 6.079 0.13736 0.0232-0.0044-0.0546-0.41485-0.0778-0.41045-2.0482 0.07521-3.427 0.54247-5.1683-0.7408-2.4436-1.8009-1.0916-6.3201-0.88238-8.6221 0.34354-1.4193 0.64679-2.8489 1.0306-4.2578 0.32022-1.1754 1.8932-6.1298 2.2984-7.4606 0.46967-1.5426 0.8182-2.6353 1.1208-4.1591 0.0547-0.27545 0.0735-0.55683 0.11026-0.83524 0.0187-0.04231-0.72924-0.37338-0.74797-0.33106z"/>
  <path d="m180.33 32.785c1.2999 0.11578 2.3508-0.46054 3.5662-0.7507 0.51705-0.12343 1.0502-0.16578 1.5752-0.24867 0.014-0.0026-0.0321-0.24996-0.0461-0.24735-0.53405 0.03392-1.0671 0.10938-1.6022 0.10178-1.1978-0.01701-2.4085-0.32856-3.6067-0.05582-0.0679 0.0064 0.0456 1.2072 0.11351 1.2008z"/>
  <path d="m201.4 38.085c-1.9575-1.0182-4.3487-0.92804-6.1262 0.48695-0.59575 0.47426-1.0406 1.112-1.5608 1.668-0.35802 0.72254-0.82535 1.4005-1.074 2.1676-0.28464 0.8779-0.8171 3.4685 0.33486 4.2719 0.8281 0.57754 1.9669 0.70122 2.9705 0.59143 2.1414-0.23427 4.2409-2.091 5.8556-3.2608 0.65598-0.74914 1.312-1.4983 1.9679-2.2474 0.015-0.01408-0.234-0.27876-0.24898-0.26468-0.69387 0.65638-1.3877 1.3128-2.0816 1.9691-2.5901 1.6908-2.5966 1.9826-5.5189 2.8159-0.51196 0.14599-1.1074 0.45269-1.5828 0.21311-0.44796-0.22575-0.60507-0.85043-0.66911-1.348-0.19083-1.4824 0.52673-2.6053 1.091-3.8811 0.40396-0.50246 0.73994-1.0681 1.2119-1.5074 1.4632-1.3618 3.3791-1.5019 5.2279-1.1171 0.0316 0.01148 0.23443-0.54623 0.20288-0.55771z"/>
  <path d="m205.03 29.502c-0.3563 0.34267-0.73419 0.66423-1.0689 1.028-1.5131 1.6444-2.6966 3.1955-3.9922 5.0544-1.7838 2.5594-3.455 5.1889-4.9219 7.9447-0.66386 1.2472-1.2276 2.5451-1.8414 3.8176-1.6304 3.7433-0.89441 2.038-2.2135 5.1135-7e-3 0.01138 0.19377 0.13679 0.20086 0.12542 1.5691-2.8917 0.66501-1.3097 2.7627-4.7165 3.8609-5.9442 7.547-12.002 11.651-17.786 0.0329-0.03261-0.54358-0.6137-0.57646-0.58109z"/>
  <path d="m201.66 53.17c-0.44284 1.2653-0.97735 2.5676-1.6142 3.7469-0.23553 0.43612-0.52716 0.83952-0.79074 1.2593-6e-3 8e-3 0.13447 0.12218 0.14093 0.11421 0.29667-0.39796 0.58773-0.80017 0.89003-1.1939 0.34867-0.45411 0.74666-0.87195 1.0627-1.3493 0.68781-1.039 0.70156-1.2976 1.046-2.3737 0.0115-0.04156-0.72318-0.24507-0.73469-0.20351z"/>
  <path d="m215.82 33.388c-0.62093 0.90863-0.98014 1.3296-1.3409 2.5124-0.64342 2.1095-1.0599 5.2194 1.1191 6.728 0.64965 0.44978 1.5439 0.33728 2.3159 0.50593 2.6832-0.887 2.6904-0.64548 4.9798-2.3887 0.63892-0.4865 1.1851-1.0841 1.7776-1.6261 0.0117-0.0091-0.14887-0.21523-0.16053-0.20615-0.62174 0.46404-1.1986 0.99528-1.8652 1.3921-2.1558 1.2832-2.3011 1.1166-4.6196 1.5656-0.70413-0.16801-2.0377-0.20696-2.3815-1.1518-0.23036-0.63306-0.21452-1.3372-0.20265-2.0108 0.0299-1.6935 0.57283-3.2801 0.97091-4.9024 0.0237-0.03354-0.5692-0.4516-0.59285-0.41807z"/>
  <path d="m222.24 31.559c-0.37761 0.39542-0.78297 0.76609-1.1328 1.1863-1.0788 1.2956-3.0899 4.1507-3.906 5.345-1.8144 2.6553-3.1656 4.7298-4.7242 7.5464-0.5926 1.0709-1.1104 2.1815-1.6655 3.2723-0.39223 0.73788-0.78445 1.4758-1.1767 2.2136-9e-3 0.01296 0.21987 0.17863 0.22924 0.16567 0.4509-0.69032 0.90179-1.3806 1.3527-2.071 2.2791-2.9501 2.508-3.1759 4.7718-6.4358 1.3443-1.9357 3.301-4.9326 4.6185-6.9454 0.49109-0.75025 0.99701-1.4911 1.4693-2.2534 0.29037-0.46869 0.54507-0.95857 0.8176-1.4379 0.0331-0.03699-0.62075-0.62281-0.65389-0.58582z"/>
  <path d="m226.47 29.609c2.3668 0.10024 4.6329-0.76529 6.9705-0.94897 0.36648-0.0288 0.73511 0.01323 1.1027 0.01984 0.1048 0.17895 0.30814 0.32958 0.31438 0.53686 0.0106 0.35343-0.16965 0.6867-0.26729 1.0265-0.7262 2.5275-0.67912 2.2001-1.691 5.0927-1.0611 3.0334-1.692 4.8828-2.7511 7.9635-3.2138 10.208 0.51539-1.6681-2.3952 7.6906-0.29075 0.93488-0.54518 1.8824-0.88338 2.8011-0.15973 0.43395-0.78443 2.1235-1.4563 2.5143-0.1715 0.09977-0.39589-0.0272-0.59384-0.0408-1.1004 0.25882-0.55649 0.28759-1.6312-0.09509-6e-3 -0.0021-0.0435 0.11048-0.0372 0.11258 1.1585 0.87081 0.51509 0.40961 1.9429 1.3657 0.4587-0.09548 0.96872-0.05501 1.3761-0.28644 1.4099-0.80095 2.3583-4.4529 2.736-5.717 0.2936-0.98247 1.9471-6.9836 2.1653-7.773 1.5966-5.6348 0.75454-2.8042 2.4061-8.1102 0.32574-1.0465 0.67301-2.0866 0.97608-3.1399 0.31811-1.1056 0.89264-2.7184 0.4772-3.9426-0.10672-0.31448-0.49102-0.44725-0.73653-0.67087-0.39944-0.01363-0.79927-0.06335-1.1983-0.04091-0.83025 0.04669-2.531 0.35994-3.3126 0.49082-2.0829 0.34878-1.0697 0.20508-2.8272 0.40964-0.24937 0.02903-0.49859 0.0594-0.74789 0.08911-0.0369 0.0035 0.0248 0.65592 0.0617 0.65243z"/>
  <path d="m262.93 32.161c-0.54439 3.7925-1.6531 7.475-2.34 11.242-0.1612 0.88414-0.2777 1.7759-0.41654 2.6638-8e-3 0.01818 0.31324 0.16502 0.32154 0.14682 0.36701-0.79188 0.77758-1.565 1.101-2.3756 0.8064-2.0212 1.3564-3.9608 1.8454-6.0796 0.31817-1.3785 0.61328-3.0077 0.72249-4.4458 0.0232-0.30526-6e-3 -0.61226-9e-3 -0.9184 0.0132-0.0693-1.2118-0.30299-1.225-0.23369z"/>
  <path d="m256.5 40.33c1.6399 0.30221 3.3378 0.05731 4.94-0.34896 0.83672-0.21216 1.6349-0.55938 2.4699-0.77807 0.76104-0.19931 1.5413-0.31618 2.312-0.47427 0.0156-0.0037-0.0497-0.28047-0.0654-0.27677-0.78194 0.10521-1.5588 0.26035-2.3458 0.31562-0.86594 0.06081-1.7365 0.0019-2.604 0.03198-1.5221 0.05301-3.0419 0.28904-4.5661 0.21684-0.0743-8e-3 -0.21492 1.3057-0.14061 1.3136z"/>
  <path d="m299.23 20.287c-0.28487 0.18742-0.59303 0.34352-0.85463 0.56226-2.186 1.8279-3.794 4.8312-5.0277 7.3036-2.5521 5.1146-2.6274 5.8715-4.611 11.415-1.3339 5.4221-3.2979 11.286-1.1778 16.821 0.40018 1.0447 1.1141 1.9634 1.8747 2.7838 0.53678 0.57893 1.3008 0.89504 1.9512 1.3426 0.0122 0.0054 0.10782-0.20888 0.0957-0.21429-0.53422-0.41113-1.2085-0.68658-1.6027-1.2334-1.4164-1.9647-1.5304-4.4034-1.4349-6.7235 0.18502-4.4954 1.1204-7.4313 2.1609-11.844 0.68169-2.0182 1.3067-4.0565 2.0451-6.0547 1.4259-3.8587 3.2163-8.0573 5.3799-11.598 0.4486-0.7341 1.0387-1.3742 1.5-2.1003 0.0259-0.0169-0.2727-0.4764-0.29869-0.45951z"/>
  <path d="m316.12 29.277c-0.32697 0.27864-0.67289 0.53646-0.98089 0.83592-0.4843 0.4709-0.93615 0.97425-1.3928 1.472-2.0259 2.2082-3.9529 4.5175-5.5997 7.0273-0.5339 0.81372-0.9938 1.6737-1.4907 2.5105-0.28953 0.71963-0.68548 1.4051-0.86863 2.1589-0.29424 1.211-0.23997 2.4815 0.60169 3.4886 1.6304 1.9509 4.114 2.4781 6.421 3.1084 3.0641 0.79244 1.6187 0.345 4.3465 1.3086 0.0132 3e-3 0.0656-0.23186 0.0523-0.23482-2.6946-1.2159-1.2946-0.5392-4.1883-2.0547-2.1469-1.112-2.0617-1.0974-4.0937-2.049-0.71165-0.33327-1.4126-0.43112-1.6806-1.3312-0.37044-1.2443 0.36026-2.2969 0.80833-3.3745 0.48239-0.8016 0.93597-1.6213 1.4472-2.4048 2.1759-3.335 4.7094-6.4308 7.3402-9.4124 0.0593-0.04084-0.66257-1.0896-0.72189-1.0488z"/>
  <path d="m331.39 35.271c-0.23148-0.12754-0.44444-0.29691-0.69445-0.38263-0.68151-0.23366-1.8854-0.44298-2.5622-0.07724-1.3956 0.75423-2.5113 2.3063-2.9812 3.7854-0.23935 0.75316-0.1727 1.5711-0.25903 2.3566 0.30056 0.62812 0.36952 1.4353 0.90167 1.8843 3.0242 2.5521 6.4371-0.55731 8.6838-2.4321 0.0127-0.0095-0.15545-0.23418-0.16815-0.22466-0.56078 0.41838-1.0719 0.91324-1.6824 1.2551-1.5106 0.84609-2.5384 1.0763-4.2282 1.1658-0.40142 0.02127-0.86077 0.11476-1.202-0.09774-0.40228-0.25052-0.54666-0.77428-0.82-1.1614 0.0315-0.63203-0.0669-1.2842 0.0944-1.8961 0.17986-0.68237 1.2597-2.8082 1.9588-3.3303 0.58248-0.43494 2.0156-0.20278 2.6809-0.03733 0.0457 0.01572 0.32372-0.79211 0.27802-0.80784z"/>
  <path d="m335.66 29.324c-0.27635 0.29213-0.58518 0.55666-0.82907 0.8764-0.87005 1.1407-2.2555 3.527-2.872 4.5876-1.4394 2.4763-2.7529 4.8363-4.0727 7.3838-0.61465 1.1864-1.1923 2.3917-1.7884 3.5876-1.0587 1.9389-1.5906 4.0032-2.0102 6.1406-5e-3 0.01013 0.17463 0.08981 0.17915 0.07968 0.12912-0.3302 0.21831-0.67893 0.38732-0.99058 0.81937-1.5107 2.0008-2.8098 2.667-4.4124 2.7551-4.8726 1.25-2.1459 4.0196-7.3218 1.8248-3.4101 1.7868-3.2826 3.4191-6.4883 0.3216-0.63158 0.65704-1.2569 0.94943-1.9025 0.16346-0.36094 0.27763-0.74224 0.41643-1.1134 0.0241-0.02635-0.44157-0.45309-0.4657-0.42675z"/>
  <path d="m335.87 48.957c-0.59087 2.0237-1.5012 3.9461-2.3684 5.8635-7e-3 0.0089 0.1505 0.1324 0.15748 0.1235 0.43011-0.47437 0.90154-0.91431 1.2903-1.4231 0.66182-0.86626 1.436-2.1746 1.7624-3.2458 0.11073-0.36333 0.0932-0.7539 0.13986-1.1308 0.0106-0.05553-0.9711-0.2428-0.98168-0.18727z"/>
  <path d="m347.83 32.036c-0.37224 0.81713-1.0281 2.0825-1.0319 2.9742-8e-3 1.955 0.71766 3.4047 2.6067 4.3129 2.0991 1.0093 3.7552 0.10125 5.7406-0.47671 2.8533-1.6413 1.6651-0.7141 3.675-2.6341 9e-3 -0.0069-0.11215-0.17178-0.12147-0.16491-2.2198 1.3593-0.95959 0.72144-3.8406 1.7906-2.1419 0.33241-2.7171 0.68498-4.7673 0.08578-0.45191-0.13208-0.94607-0.30802-1.2406-0.67538-1.0404-1.2978-0.63376-2.0277-0.40595-3.4537 0.0689-0.43165 0.14113-0.86279 0.21169-1.2942 0.0262-0.04674-0.79999-0.51134-0.82627-0.4646z"/>
  <path d="m354.94 29.373c-0.33002 0.37114-0.6913 0.71667-0.99007 1.1134-0.81786 1.0861-2.7332 4.1734-3.2599 5.0534-1.5304 2.557-3.2316 5.5737-4.5734 8.2299-0.63495 1.2569-1.2047 2.5457-1.807 3.8185-0.33404 0.9444-0.66805 1.8888-1.0021 2.8332-0.0106 0.01685 0.28737 0.20494 0.298 0.18808 0.52742-0.80881 1.0548-1.6176 1.5822-2.4264 0.72681-1.1822 1.4689-2.3552 2.1804-3.5467 2.0338-3.4057 2.72-4.7005 4.6386-8.1447 0.96885-1.7392 1.9676-3.4619 2.9217-5.2092 0.22908-0.41952 0.43654-0.85047 0.65479-1.2757 0.0358-0.03639-0.60751-0.67022-0.64336-0.63382z"/>
  <path d="m361.1 29.681c0.19576 0.30984 0.32866 0.66986 0.58732 0.92952 0.44865 0.45042 0.99552 0.79128 1.5052 1.1712 1.6242 1.2107 4.1996 2.8025 5.2127 4.6061 0.21646 0.38531 0.18307 0.86473 0.27459 1.2971-0.1225 0.56996-0.11171 1.186-0.36751 1.7099-0.60679 1.2426-3.0684 4.1687-3.7936 5.1262-3.3785 4.4602-0.54597 1.0519-3.621 4.6379-0.0145 0.01389 0.23132 0.27042 0.24582 0.25652 0.60592-0.58958 1.1944-1.1977 1.8178-1.7688 0.82346-0.75437 1.7295-1.4187 2.5214-2.2062 1.4241-1.4162 3.3891-3.6463 4.1988-5.5552 0.30215-0.71228 0.26622-1.5244 0.39934-2.2866-0.29136-0.78445-0.4504-1.6317-0.87411-2.3534-0.39293-0.66922-0.97348-1.2148-1.5353-1.7502-1.6644-1.5861-3.6888-2.7821-5.6219-3.9984-0.0103-0.05371-0.95996 0.13057-0.94953 0.18429z"/>
  <path d="m381.07 46.473c-1.585-1.407-4.5905-3.2754-6.4253-1.1106-0.4876 0.57527-0.70794 1.3317-1.0619 1.9976-0.26043 0.89943-0.56673 1.7868-0.78131 2.6983-0.25969 1.103-0.45916 2.2201-0.64 3.3387-0.41511 2.5676-0.57843 3.9255-0.50927 6.4893 0.0201 0.74905 0.13644 1.4924 0.20468 2.2386-4e-3 0.01445 0.2517 0.07935 0.25538 0.0649 0.46661-1.8149 0.78806-2.9758 1.1615-4.8972 0.58751-3.0229 0.89083-6.1076 1.7591-9.073 0.18767-0.54393 0.38092-1.8587 1.1631-2.1698 0.73676-0.29304 1.6941 0.21947 2.2985 0.46034 0.94197 0.37541 1.2918 0.55223 2.1409 0.95132 0.0559 0.02461 0.49067-0.96388 0.43474-0.98848z"/>
  <path d="m367.24 54.203c0.3371 0.04991 0.6708 0.13653 1.0113 0.14974 2.6404 0.10245 5.1102-0.4225 7.6842-0.92112 0.0246-0.0044-0.0539-0.44153-0.0786-0.43709-2.8229 0.03634-5.6472 0.08832-8.4693 0.1133-0.0619-0.0084-0.20955 1.0868-0.14758 1.0952z"/>
  <path d="m402.96 32.265c0.0111 0.80912 0.0312 1.5747-0.0222 2.3936-0.0685 1.0466-0.41849 4.0243-0.51943 4.9199-0.39756 3.5272-0.23431 1.8203-0.50048 5.1048-0.10872 0.54687-0.21741 1.0937-0.3261 1.6406-4e-3 0.0098 0.16962 0.08177 0.1737 0.07195 0.16446-0.52736 0.3289-1.0547 0.49336-1.5821 0.26758-0.7228 0.58087-1.4303 0.80275-2.1684 0.53284-1.7726 0.8572-3.5856 1.0707-5.4214 0.14848-1.2766 0.25331-2.7459 0.095-4.045-0.0412-0.33839-0.16996-0.66025-0.25495-0.99038-4e-3 -0.05725-1.0165 0.01916-1.0122 0.0764z"/>
  <path d="m398.61 39.707c2.2959 0.24652 4.5748-0.2471 6.8302-0.59292 0.92178-0.14134 1.8448-0.27457 2.7672-0.41185 0.0175-3e-3 -0.0353-0.3109-0.0527-0.30792-0.93602 0.03394-1.8715 0.09427-2.8081 0.10183-2.2602 0.01826-4.5248-0.14889-6.7851-0.01352-0.0693 0.0028-0.0206 1.2271 0.0486 1.2244z"/>
  <path d="m433.92 29.824c-2.3566 1.7262-4.455 3.7829-6.493 5.8677-0.65614 0.67121-1.3177 1.3389-1.9325 2.0481-0.53274 0.61459-1.0044 1.2796-1.5066 1.9194-0.29035 0.56377-0.71612 1.0764-0.87103 1.6913-0.36259 1.4391 0.22056 2.5732 1.3512 3.5165 1.1318 0.94432 3.1882 1.2578 4.5009 1.6552 0.77386 0.23427 1.5323 0.51658 2.2985 0.77488 0.0196 0.0047 0.10184-0.34351 0.0822-0.34816-2.986-1.5103-1.4886-0.6878-4.3966-2.4239-0.5353-0.31957-1.069-0.64176-1.6063-0.9579-0.21169-0.12454-0.50519-0.15918-0.64058-0.36409-0.64513-0.97643 0.0534-1.5373 0.51552-2.4284 0.47921-0.60765 0.93233-1.2368 1.4376-1.8229 2.2653-2.6276 4.8539-4.9684 7.0918-7.62 0.24921-0.29533 0.46672-0.61604 0.70008-0.92405 0.033-0.03005-0.49813-0.61376-0.53115-0.58372z"/>
  <path d="m442.6 30.89c-0.1965 0.31922-0.4355 0.6159-0.58951 0.95766-1.1159 2.4766-1.3471 6.0379 1.4573 7.5836 0.69572 0.38345 1.561 0.29597 2.3415 0.44396 2.7636-0.44053 4.4893-1.1958 6.5039-3.1309 0.34708-0.33339 0.62471-0.73226 0.93705-1.0984 7e-3 -0.0071-0.11829-0.13899-0.12573-0.13188-0.33337 0.31734-0.62566 0.68438-1.0001 0.95204-1.8364 1.3127-4.0009 1.8995-6.2301 2.0265-0.50244-0.09834-2.2384-0.23352-2.69-0.91522-1.0816-1.6327-0.37071-4.4947 0.0875-6.2453 0.0249-0.03914-0.66683-0.48132-0.69186-0.44218z"/>
  <path d="m449.29 30.822c-1.9374 2.1624-3.7559 4.403-5.3023 6.8703-0.82574 1.3175-1.545 2.6992-2.2853 4.0666-0.99666 1.8411-1.9912 3.8712-2.9317 5.7624-0.0103 0.01503 0.25517 0.19771 0.26551 0.1827 0.45172-0.73768 0.87373-1.4944 1.3551-2.213 3.1708-4.7334 7.1232-9.0023 9.3946-14.295 0.0212-0.02806-0.47479-0.4024-0.49596-0.37434z"/>
  <path d="m448.35 49.376c-0.55621 1.406-1.0498 2.8329-1.527 4.2671-6e-3 0.0084 0.14208 0.10727 0.14769 0.09891 0.96358-1.2351 1.9624-2.4588 2.4869-3.9613 0.0227-0.06265-1.0846-0.46738-1.1075-0.40473z"/>
  <path d="m468.75 36.102c-0.59677-0.45958-0.88657-0.74669-1.6613-1.0056-1.5448-0.51634-3.2553-0.24879-4.5785 0.72264-0.51959 0.38144-0.89535 0.92748-1.343 1.3912-0.30009 0.89203-1.3321 2.944-0.30538 3.9401 1.8016 1.7478 4.3974 1.4741 6.5295 0.92466 1.9397-0.49984 4.0992-1.7896 5.858-2.7421 0.0161-0.0084-0.13205-0.29182-0.14809-0.28345-0.87111 0.41822-1.702 0.93332-2.6133 1.2547-2.6808 0.9453-3.6069 0.8896-6.3745 0.90607-0.57282 0.0034-1.2391 0.24994-1.7172-0.06559-0.88953-0.58706-0.28046-2.2059-0.14447-2.8386 0.32094-0.38793 0.57918-0.83772 0.9628-1.1638 1.6762-1.4247 3.4746-0.9505 5.3212-0.31162 0.0412 0.01212 0.25543-0.71646 0.21421-0.72858z"/>
  <path d="m472.15 31.645c-1.973 2.3922-4.0587 4.709-5.854 7.2429-0.87477 1.2347-1.6912 2.5118-2.4615 3.8142-1.0362 1.7521-2.0994 3.9998-3.0126 5.8696-0.01 0.0141 0.23913 0.19362 0.24927 0.17952 0.50966-0.72881 0.99467-1.4755 1.5289-2.1864 0.75367-1.0029 1.5631-1.9627 2.3333-2.9529 1.9015-2.445 3.4696-4.5127 5.2896-7.0131 0.6419-0.8819 1.2892-1.7607 1.8958-2.6672 0.33862-0.50592 0.62537-1.0447 0.93806-1.567 0.0407-0.0513-0.86622-0.77078-0.90692-0.71948z"/>
  <path d="m478.89 31.946c1.6084 1.7555 4.0204 2.3805 5.9056 3.7524 0.45204 0.32895 0.91919 0.67552 1.23 1.1403 0.16904 0.25281 0.0905 0.60148 0.13581 0.90221-0.20283 0.49323-0.33655 1.0209-0.60844 1.4797-0.77711 1.3114-2.4336 3.1264-3.3636 4.2281-2.2522 2.668-1.4622 1.693-3.4137 4.2625-0.0109 0.01005 0.16661 0.20369 0.17756 0.19364 2.2941-1.772 4.4692-3.5173 6.3154-5.7876 0.5773-0.70991 1.152-1.4392 1.5623-2.2571 0.34729-0.69235 0.45593-1.4805 0.68389-2.2208-0.27554-0.66331-0.4174-1.3996-0.82658-1.9899-0.36124-0.52114-0.91088-0.88921-1.4257-1.2594-1.8214-1.3096-4.0325-1.9831-5.8092-3.3631-0.052-0.03186-0.61521 0.88725-0.56322 0.91911z"/>
  <path d="m497.47 46.864c-0.10668-0.19434-0.18958-0.40377-0.32004-0.58303-0.69827-0.95948-2.1522-2.1324-3.3956-2.1549-0.35761-0.0065-0.69942 0.15004-1.0491 0.22506-0.34915 0.37197-0.77306 0.68582-1.0474 1.1159-0.72456 1.1359-1.1746 3.0681-1.4509 4.2837-0.3738 1.6447-0.82222 4.267-1.0126 5.943-0.10459 0.9206-0.14414 1.8474-0.21624 2.7712-0.035 0.77044-0.0701 1.5409-0.10515 2.3113-7e-3 0.01773 0.3066 0.13343 0.31314 0.11572 0.26514-0.69673 0.53028-1.3935 0.79541-2.0902 0.22744-0.87367 0.49126-1.7387 0.68231-2.621 0.41765-1.9287 0.66953-3.89 1.0489-5.8266 0.31416-1.6038 0.59113-3.2358 1.4028-4.6792 0.15994-0.05597 0.31044-0.17201 0.47985-0.1679 1.1605 0.02813 2.4139 1.3209 3.19 2.0908 0.0415 0.03873 0.7261-0.69516 0.68459-0.73389z"/>
  <path d="m487.98 52.778c1.5186 0.16371 3.013-0.28895 4.5014-0.5052 0.59528-0.08649 1.1952-0.1379 1.7927-0.20685 0.0111-0.0019-0.0204-0.19645-0.0314-0.19468-0.6032 0.0273-1.2058 0.07988-1.8096 0.08191-1.4901 5e-3 -2.9676-0.20734-4.4566-0.16077-0.0557 1.95e-4 -0.0523 0.98577 3e-3 0.98558z"/>
  <path d="m506.86 24.619c1.4225 1.3157 2.5932 2.8957 3.2183 4.7519 0.33161 0.98469 0.64543 1.991 0.75534 3.0242 0.32967 3.0987-0.22815 5.3005-0.69668 8.3772-1.7003 6.35-0.79856 3.2507-2.7072 9.349-0.39849 1.2732-0.73694 2.5669-1.1957 3.8196-0.33142 0.90499-0.78071 1.7623-1.1711 2.6435-0.0114 0.01775 0.30242 0.2171 0.31369 0.19936 0.38749-0.70258 3.2056-5.8057 3.3084-6.0272 1.7713-3.8181 2.0254-5.3281 3.2011-9.4252 0.22701-1.566 0.57425-3.1193 0.68106-4.6981 0.31496-4.6547-0.52628-8.857-4.1293-12.069-0.347-0.30936-0.77015-0.5209-1.1552-0.78134-0.0473-0.02391-0.46993 0.81214-0.42262 0.83605z"/>
  <path d="m529.46 27.002c-0.0571 0.46041-0.13311 0.91887-0.17124 1.3812-0.0659 0.79943-0.0838 1.6022-0.14076 2.4023-0.16714 2.3471-0.53007 6.1684-0.60248 8.4122-0.0269 0.83427-0.01 9.2058-8e-3 10.184-8e-3 0.03268 0.56978 0.17179 0.57764 0.13911 0.1715-1.4316 1.035-8.567 1.1576-9.8941 0.14348-1.5532 0.23519-3.111 0.31949-4.6685 0.10033-1.8544 0.20661-4.3613 0.1021-6.3066-0.0259-0.48486-0.11417-0.96438-0.17124-1.4466 0.0114-0.06012-1.0514-0.26286-1.0628-0.20274z"/>
 </g>
</svg>
